<svg width="20" height="17" fill="none" xmlns="http://www.w3.org/2000/svg"><path d="M17.642 2.69A7.953 7.953 0 0020 2.02a8.167 8.167 0 01-2.052 2.216c.013.181.013.362.013.557C17.961 10.465 13.831 17 6.29 17A11.27 11.27 0 010 15.077c.32.042.653.056.986.056 1.919 0 3.69-.683 5.09-1.84-1.786-.041-3.305-1.281-3.824-2.981.253.055.506.07.773.07a3.99 3.99 0 001.079-.154C2.225 9.838.813 8.11.813 6.034v-.056c.56.32 1.186.515 1.865.53C1.572 5.74.853 4.43.853 2.94c0-.78.2-1.519.56-2.16 2.025 2.592 5.05 4.306 8.447 4.487a4.75 4.75 0 01-.106-.975C9.754 1.923 11.591 0 13.857 0c1.173 0 2.239.516 2.998 1.352A7.773 7.773 0 0019.454.307a4.275 4.275 0 01-1.812 2.382z" fill="#fff"/></svg>