<svg width="16" height="20" fill="none" xmlns="http://www.w3.org/2000/svg"><path fill-rule="evenodd" clip-rule="evenodd" d="M2 8.176C2 4.732 4.735 2 8 2s6 2.732 6 6.176c0 1.427-.49 2.69-1.456 4.062-1.005 1.427-2.43 2.841-4.215 4.605l-.331.327-.332-.328C5.882 15.08 4.46 13.666 3.454 12.24 2.49 10.867 2 9.604 2 8.176zm7.412 10.408l.322-.318.009-.009C13.237 14.807 16 12.077 16 8.177 16 3.668 12.41 0 8 0S0 3.669 0 8.176c0 3.905 2.763 6.635 6.262 10.09l.324.32c.464.459.937.93 1.414 1.414.477-.486.949-.957 1.412-1.416zM9 8a1 1 0 11-2 0 1 1 0 012 0zm2 0a3 3 0 11-6 0 3 3 0 016 0z" fill="#fff"/></svg>