<svg width="16" height="16" fill="none" xmlns="http://www.w3.org/2000/svg"><path d="M15 6c-.6 0-1-.4-1-1V2h-3c-.6 0-1-.4-1-1s.4-1 1-1h4c.6 0 1 .4 1 1v4c0 .6-.4 1-1 1z" fill="#fff"/><path d="M10 7c-.3 0-.5-.1-.7-.3-.4-.4-.4-1 0-1.4l5-5c.4-.4 1-.4 1.4 0 .4.4.4 1 0 1.4l-5 5c-.2.2-.4.3-.7.3z" fill="#fff"/><path d="M13.6 16h-.2c-2.3-.3-4.6-1.1-6.5-2.3a15.2 15.2 0 01-4.6-4.5C1.1 7.2.3 5 0 2.6c0-.4 0-.7.1-1 .1-.3.3-.6.5-.8.2-.2.5-.4.8-.6.3-.1.7-.2 1-.2h2.1c.6 0 1.1.2 1.6.6.4.4.7.9.8 1.5.1.6.2 1.2.5 1.7.2.4.2.9.1 1.3s-.4.9-.7 1.3l-.3.3c.7 1.1 1.7 2.1 2.8 2.8l.3-.3c.3-.3.7-.6 1.2-.6.5-.1.9-.1 1.3.1.6.2 1.2.4 1.8.4.6.1 1.1.4 1.5.8.4.4.6 1 .6 1.6v2.1c0 .3-.1.7-.2 1-.1.3-.3.6-.6.8-.2.2-.5.4-.9.5-.2.1-.4.1-.7.1zM4.5 2H2.2c-.1 0-.1.1-.1.1l-.1.1v.2c.2 2 .9 3.9 2 5.6 1 1.6 2.4 3 3.9 4 1.7 1.1 3.6 1.8 5.6 2h.2c.1 0 .1 0 .1-.1l.1-.1v-2.3c0-.1 0-.2-.1-.3-.1-.1-.2-.1-.3-.1-.7-.1-1.5-.3-2.2-.5h-.2c-.1 0-.1.1-.2.1l-.9.9c-.3.3-.8.4-1.2.2C7 10.6 5.4 9 4.3 7.1c-.2-.4-.1-.9.2-1.3l.9-.8c.1-.1.1-.1.1-.2v-.2c-.3-.8-.5-1.5-.6-2.3 0-.1-.1-.2-.1-.2-.1-.1-.2-.1-.3-.1z" fill="#fff"/></svg>