<svg width="97" height="24" fill="none" xmlns="http://www.w3.org/2000/svg"><g clip-path="url(#clip0)"><path d="M60.77 23.652C66.782 11.826 78.906 3.727 92.969 3.528v3.429l-4.174 4.173 4.323 4.323v8.2h3.577v-9.69l-2.882-2.833 2.733-2.732V0h-3.13C77.167 0 63.155 9.69 56.844 23.652h3.926z" fill="#FF6A00"/><path fill-rule="evenodd" clip-rule="evenodd" d="M20.523 9.043c-1.54 0-2.982.547-4.075 1.491V3.677h-3.975v19.975h3.975v-9.54c.696-.597 1.838-1.392 3.18-1.392 1.441 0 2.037.994 2.037 2.336v8.546h3.976v-9.44c.05-2.833-1.69-5.119-5.118-5.119zm29.465.348v1.74c1.292-1.243 2.684-2.088 4.174-2.088.447 0 .795 0 1.193.05v3.826a6.451 6.451 0 00-1.292-.149c-1.69 0-3.23.795-4.075 1.888v8.994h-3.975V9.392h3.975zM4.97 14.311l1.242.596c2.286 1.143 3.628 2.285 3.677 4.62C9.888 22.113 7.901 24 4.671 24c-1.64 0-3.13-.398-4.323-.994v-4.372c.894.894 2.683 1.689 4.074 1.689 1.094 0 1.491-.348 1.491-.795 0-.447-.397-.745-1.192-1.093l-.994-.497C1.242 16.795 0 15.205 0 13.366c0-2.236 1.839-4.273 4.87-4.273 1.64 0 3.13.398 4.323.994v4.373c-.895-.895-2.684-1.69-4.075-1.69-.795 0-.994.348-.994.646 0 .199.15.547.845.894zm29.664-5.268c1.59 0 2.981.646 4.074 1.74V9.39h3.976v14.211h-3.976v-1.39c-1.142 1.092-2.534 1.738-4.074 1.738-3.975 0-6.609-3.18-6.609-7.453s2.634-7.454 6.609-7.454zm-2.584 7.454c0 2.137 1.143 3.776 3.18 3.776 1.69 0 2.683-.944 3.478-2.037v-3.478c-.795-1.093-1.788-2.037-3.478-2.037-2.037 0-3.18 1.689-3.18 3.776zM56.596 9.39l3.876 5.665 2.633-3.031-1.789-2.634h-4.72zm32.448 9.392c-.745-.497-1.441-.696-1.988-.696-1.142 0-1.788.745-1.838 1.789 0 .944.646 1.69 1.838 1.69.547 0 1.193-.2 1.988-.696v2.434a5.592 5.592 0 01-2.385.547c-2.187 0-3.876-1.69-3.876-3.975 0-2.336 1.69-4.025 3.876-4.025.844 0 1.64.199 2.385.546v2.386zm-9.89-2.087c-.645-.547-1.39-.895-2.185-.895-1.988 0-3.33 1.69-3.33 4.025 0 2.286 1.342 4.025 3.33 4.025.795 0 1.54-.348 2.186-.895v.746h2.435V13.168h-2.435v3.528zm-.049 3.925c-.348.497-.845.895-1.59.895-.894 0-1.44-.746-1.44-1.69 0-.994.496-1.789 1.44-1.789.745 0 1.242.497 1.59.895v1.69zm-12.571 3.031l-2.336-3.23 2.584-3.18 4.472 6.41h-4.72z" fill="#141A2C"/></g><defs><clipPath id="clip0"><path fill="#fff" d="M0 0h96.696v24H0z"/></clipPath></defs></svg>