<svg width="184" height="36" fill="none" xmlns="http://www.w3.org/2000/svg"><path d="M82.895 17.628c0 6.974-4.255 10.271-9.581 10.271h-3.255v-4.184h3.001c3.213 0 5.354-1.733 5.354-6.087 0-4.312-2.025-6.468-5.45-6.468-3.296 0-5.653 2.03-5.653 6.383v17.5h-4.439V7.525h4.439v2.368h.634c1.48-1.987 3.667-2.875 5.95-2.875 4.903 0 9 3.551 9 10.61zm-29.17-1.818l-2.96-.296c-2.325-.211-3.55-.846-3.55-2.198 0-1.607 1.564-2.537 3.804-2.537 2.325 0 3.804 1.1 3.931 2.663h4.27c-.17-3.973-3.255-6.425-8.159-6.425-4.946 0-8.285 2.621-8.285 6.468 0 3.213 2.029 5.284 6.637 5.749l3 .296c1.819.169 3.045.55 3.045 2.282 0 1.564-1.142 2.706-4.143 2.706-2.764 0-4.126-1.254-4.603-2.936h-4.62c.46 3.843 3.689 6.825 9.223 6.825 5.2 0 8.581-2.748 8.581-6.806 0-3.593-2.367-5.41-6.172-5.791zm46.361 5.772c-.697 1.6-2.36 2.809-4.721 2.809-3.255 0-5.665-2.114-5.665-6.679 0-4.354 2.24-6.764 5.707-6.764 3.086 0 4.861 1.86 5.03 4.65h-7.99v3.213h12.344v-2.113c0-5.876-3.889-9.68-9.426-9.68-5.158 0-10.103 3.508-10.103 10.694 0 7.186 4.945 10.695 10.103 10.695 4.717 0 8.08-2.906 9.125-6.825h-4.404zM30.116 7.018c-4.862 0-8.497 2.537-8.92 6.425h4.777c.338-1.437 1.649-2.493 4.143-2.493 3.212 0 4.27 1.69 4.27 3.762v6.975c-1.819 2.071-3.932 3.043-6.046 3.043-2.198 0-3.72-1.057-3.72-2.959 0-1.818 1.184-2.959 3.466-2.959h3.551v-3.213H27.96c-5.073 0-7.905 2.537-7.905 6.426 0 3.635 2.747 6.383 7.27 6.383 2.537 0 4.777-1.015 6.426-2.24h.634V27.9h4.439V14.288c0-5.03-3.424-7.27-8.708-7.27zM0 27.9h4.439V0H0v27.9zM18.642 7.523h-5.41L6.764 16.02v2.663L13.4 27.9h5.495l-7.777-10.568 7.524-9.807zm160.454 0l-3.635 8.074c-.888 1.945-1.733 3.847-1.987 5.115h-.634c-.254-1.268-1.141-3.128-2.029-5.072l-3.635-8.117h-4.904l8.539 18.304-4.227 9.216h4.734L184 7.524h-4.904zm-17.806 0h-5.41l-6.468 8.497v2.663l6.637 9.215h5.495l-7.778-10.568 7.524-9.807zM133.5 15.81l-2.959-.296c-2.325-.211-3.551-.846-3.551-2.198 0-1.607 1.564-2.537 3.805-2.537 2.325 0 3.804 1.1 3.931 2.663h4.27c-.169-3.973-3.255-6.425-8.159-6.425-4.946 0-8.285 2.621-8.285 6.468 0 3.213 2.029 5.284 6.637 5.749l3.001.296c1.818.169 3.044.55 3.044 2.282 0 1.564-1.142 2.706-4.143 2.706-2.764 0-4.126-1.254-4.604-2.936h-4.619c.461 3.843 3.689 6.825 9.223 6.825 5.199 0 8.581-2.748 8.581-6.806 0-3.593-2.367-5.41-6.172-5.791zm9.148 12.09h4.439V0h-4.439v27.9zM113.379 9.892h-.634V7.524h-4.438V27.9h4.438V17.248c0-3.635 1.68-5.75 4.988-5.75h2.81v-4.48h-1.626c-3.07 0-4.374 1.158-5.538 2.875z" fill="#fff"/></svg>