<svg width="20" height="17" viewBox="0 0 20 17" fill="none" xmlns="http://www.w3.org/2000/svg">
<path d="M17.6416 2.68934C18.4677 2.5918 19.2672 2.35492 20 2.02049C19.4537 2.88443 18.7608 3.63689 17.948 4.23607C17.9614 4.41721 17.9614 4.59836 17.9614 4.79344C17.9614 10.4648 13.8308 17 6.28914 17C3.97069 17 1.81213 16.2893 0 15.077C0.319787 15.1189 0.652898 15.1328 0.986009 15.1328C2.90473 15.1328 4.67688 14.45 6.07595 13.2934C4.29047 13.2516 2.77149 12.0115 2.25183 10.3115C2.505 10.3672 2.75816 10.3811 3.02465 10.3811C3.39773 10.3811 3.75749 10.3254 4.10393 10.2279C2.22518 9.83771 0.812791 8.10984 0.812791 6.03361C0.812791 6.01967 0.812791 5.9918 0.812791 5.97787C1.37242 6.29836 1.99867 6.49344 2.67821 6.50738C1.57229 5.74098 0.852765 4.43115 0.852765 2.94016C0.852765 2.15984 1.05263 1.42131 1.41239 0.780328C3.43771 3.37213 6.46236 5.08607 9.86009 5.26721C9.79347 4.94672 9.7535 4.62623 9.7535 4.2918C9.7535 1.92295 11.5923 0 13.8574 0C15.03 0 16.0959 0.515574 16.8554 1.35164C17.7881 1.15656 18.6676 0.808197 19.4537 0.306557C19.1472 1.30984 18.4943 2.15984 17.6416 2.68934Z" fill="white"/>
</svg>
