<svg width="16" height="16" viewBox="0 0 16 16" fill="none" xmlns="http://www.w3.org/2000/svg">
<path d="M15 6C14.4 6 14 5.6 14 5V2H11C10.4 2 10 1.6 10 1C10 0.4 10.4 0 11 0H15C15.6 0 16 0.4 16 1V5C16 5.6 15.6 6 15 6Z" fill="white"/>
<path d="M10 7C9.7 7 9.5 6.9 9.3 6.7C8.9 6.3 8.9 5.7 9.3 5.3L14.3 0.3C14.7 -0.1 15.3 -0.1 15.7 0.3C16.1 0.7 16.1 1.3 15.7 1.7L10.7 6.7C10.5 6.9 10.3 7 10 7Z" fill="white"/>
<path d="M13.6 16C13.5 16 13.5 16 13.4 16C11.1 15.7 8.8 14.9 6.9 13.7C5 12.5 3.5 11 2.3 9.2C1.1 7.2 0.3 5 0 2.6C0 2.2 0 1.9 0.1 1.6C0.2 1.3 0.4 1 0.6 0.8C0.8 0.6 1.1 0.4 1.4 0.2C1.7 0.1 2.1 0 2.4 0H4.5C5.1 0 5.6 0.2 6.1 0.6C6.5 1 6.8 1.5 6.9 2.1C7 2.7 7.1 3.3 7.4 3.8C7.6 4.2 7.6 4.7 7.5 5.1C7.4 5.5 7.1 6 6.8 6.4L6.5 6.7C7.2 7.8 8.2 8.8 9.3 9.5L9.6 9.2C9.9 8.9 10.3 8.6 10.8 8.6C11.3 8.5 11.7 8.5 12.1 8.7C12.7 8.9 13.3 9.1 13.9 9.1C14.5 9.2 15 9.5 15.4 9.9C15.8 10.3 16 10.9 16 11.5V13.6C16 13.9 15.9 14.3 15.8 14.6C15.7 14.9 15.5 15.2 15.2 15.4C15 15.6 14.7 15.8 14.3 15.9C14.1 16 13.9 16 13.6 16ZM4.5 2H2.4C2.4 2 2.3 2 2.2 2C2.1 2 2.1 2.1 2.1 2.1L2 2.2C2 2.3 2 2.3 2 2.4C2.2 4.4 2.9 6.3 4 8C5 9.6 6.4 11 7.9 12C9.6 13.1 11.5 13.8 13.5 14C13.5 14 13.6 14 13.7 14C13.8 14 13.8 14 13.8 13.9L13.9 13.8C13.9 13.8 13.9 13.7 13.9 13.6V11.5C13.9 11.4 13.9 11.3 13.8 11.2C13.7 11.1 13.6 11.1 13.5 11.1C12.8 11 12 10.8 11.3 10.6C11.2 10.6 11.1 10.6 11.1 10.6C11 10.6 11 10.7 10.9 10.7L10 11.6C9.7 11.9 9.2 12 8.8 11.8C7 10.6 5.4 9 4.3 7.1C4.1 6.7 4.2 6.2 4.5 5.8L5.4 5C5.5 4.9 5.5 4.9 5.5 4.8C5.5 4.7 5.5 4.6 5.5 4.6C5.2 3.8 5 3.1 4.9 2.3C4.9 2.2 4.8 2.1 4.8 2.1C4.7 2 4.6 2 4.5 2Z" fill="white"/>
</svg>
