<svg width="16" height="20" viewBox="0 0 16 20" fill="none" xmlns="http://www.w3.org/2000/svg">
<path fill-rule="evenodd" clip-rule="evenodd" d="M2 8.17646C2 4.73204 4.73476 2 8 2C11.2652 2 14 4.73204 14 8.17646C14 9.60273 13.5108 10.866 12.5441 12.2379C11.5385 13.6649 10.1145 15.0794 8.32918 16.8425C8.21943 16.9508 8.10903 17.0599 7.99805 17.1699L7.66649 16.8425C5.88157 15.0798 4.45869 13.6653 3.4543 12.2386C2.48872 10.8671 2 9.60351 2 8.17646ZM9.41248 18.5839C9.52011 18.4773 9.62731 18.3713 9.73405 18.266L9.74296 18.2572C13.2371 14.8065 16 12.0779 16 8.17646C16 3.66892 12.4108 0 8 0C3.58919 0 0 3.66892 0 8.17646C0 12.0812 2.76324 14.8111 6.26162 18.266L6.58559 18.5859C7.04961 19.0445 7.52339 19.5151 8 20C8.47729 19.5144 8.94889 19.0431 9.41248 18.5839ZM9 8C9 8.55228 8.55228 9 8 9C7.44772 9 7 8.55228 7 8C7 7.44772 7.44772 7 8 7C8.55228 7 9 7.44772 9 8ZM11 8C11 9.65685 9.65685 11 8 11C6.34315 11 5 9.65685 5 8C5 6.34315 6.34315 5 8 5C9.65685 5 11 6.34315 11 8Z" fill="white"/>
</svg>
