<svg width="16" height="16" viewBox="0 0 16 16" fill="none" xmlns="http://www.w3.org/2000/svg">
<path fill-rule="evenodd" clip-rule="evenodd" d="M2.26985 3.31671C2.45232 3.1218 2.71194 3 3 3H13C13.2881 3 13.5477 3.1218 13.7302 3.31671L8 7.28374L2.26985 3.31671ZM2 5.56241V12C2 12.5523 2.44772 13 3 13H13C13.5523 13 14 12.5523 14 12V8V5.56241L8.56921 9.32219L8 9.71626L7.43079 9.32219L2 5.56241ZM3 1C1.34315 1 0 2.34315 0 4V4.1V12C0 13.6569 1.34314 15 3 15H13C14.6569 15 16 13.6569 16 12V8V4C16 2.34315 14.6569 1 13 1H3Z" fill="white"/>
</svg>
