<svg width="97" height="24" viewBox="0 0 97 24" fill="none" xmlns="http://www.w3.org/2000/svg">
<g clip-path="url(#clip0)">
<path d="M60.7698 23.6522C66.7822 11.8261 78.9065 3.72671 92.9686 3.52795V6.95652L88.7947 11.1304L93.1176 15.4534V23.6522H96.6953V13.9627L93.8133 11.1304L96.5462 8.39752V0H93.4158C77.1673 0 63.1549 9.68944 56.8444 23.6522H60.7698Z" fill="#FF6A00"/>
<path fill-rule="evenodd" clip-rule="evenodd" d="M20.5225 9.04346C18.9821 9.04346 17.5411 9.59005 16.4479 10.5341V3.677H12.4728V23.6522H16.4479V14.1118C17.1436 13.5155 18.2864 12.7205 19.6281 12.7205C21.0691 12.7205 21.6653 13.7143 21.6653 15.0559V23.6025H25.6405V14.1615C25.6902 11.3292 23.951 9.04346 20.5225 9.04346ZM49.9884 9.39128V11.1304C51.2803 9.88818 52.6716 9.04346 54.1623 9.04346C54.6095 9.04346 54.9573 9.04346 55.3548 9.09315V12.9192C54.9076 12.8199 54.4107 12.7702 54.0629 12.7702C52.3735 12.7702 50.8331 13.5652 49.9884 14.6584V23.6522H46.0132V9.39128H49.9884ZM4.96895 14.3105L6.21118 14.9068C8.4969 16.0497 9.83851 17.1925 9.8882 19.5279C9.8882 22.1118 7.90062 24 4.67081 24C3.03106 24 1.54037 23.6025 0.347826 23.0062V18.6335C1.24224 19.5279 3.03106 20.323 4.42236 20.323C5.51553 20.323 5.91304 19.9751 5.91304 19.5279C5.91304 19.0807 5.51553 18.7826 4.7205 18.4348L3.72671 17.9379C1.24224 16.795 0 15.2049 0 13.3664C0 11.1304 1.83851 9.09315 4.86957 9.09315C6.50932 9.09315 8 9.49066 9.19255 10.0869V14.4596C8.29814 13.5652 6.50932 12.7702 5.11801 12.7702C4.32298 12.7702 4.12422 13.118 4.12422 13.4161C4.12422 13.6149 4.27329 13.9627 4.96895 14.3105ZM34.6329 9.04346C36.2229 9.04346 37.6143 9.68942 38.7074 10.7826V9.39128H42.6826V23.6025H38.7074V22.2112C37.5646 23.3043 36.1733 23.9503 34.6329 23.9503C30.6577 23.9503 28.0242 20.7702 28.0242 16.4969C28.0242 12.2236 30.6577 9.04346 34.6329 9.04346ZM32.049 16.4969C32.049 18.6335 33.1919 20.2733 35.2292 20.2733C36.9186 20.2733 37.9124 19.3292 38.7074 18.236V14.7577C37.9124 13.6646 36.9186 12.7205 35.2292 12.7205C33.1919 12.7205 32.049 14.4099 32.049 16.4969ZM56.5957 9.39128L60.4715 15.0559L63.1051 12.0248L61.3162 9.39128H56.5957ZM89.0439 18.7826C88.2985 18.2857 87.6029 18.087 87.0563 18.087C85.9135 18.087 85.2675 18.8323 85.2178 19.8758C85.2178 20.8199 85.8638 21.5652 87.0563 21.5652C87.6029 21.5652 88.2489 21.3665 89.0439 20.8696V23.3043C88.2985 23.6522 87.5035 23.8509 86.6588 23.8509C84.4725 23.8509 82.783 22.1615 82.783 19.8758C82.783 17.5404 84.4725 15.8509 86.6588 15.8509C87.5035 15.8509 88.2985 16.0497 89.0439 16.3975V18.7826ZM79.1549 16.6956C78.509 16.149 77.7636 15.8012 76.9686 15.8012C74.981 15.8012 73.6394 17.4906 73.6394 19.826C73.6394 22.1118 74.981 23.8509 76.9686 23.8509C77.7636 23.8509 78.509 23.5031 79.1549 22.9565V23.7018H81.5897V13.1677H79.1549V16.6956ZM79.1052 20.6211C78.7574 21.118 78.2605 21.5155 77.5152 21.5155C76.6208 21.5155 76.0742 20.7702 76.0742 19.826C76.0742 18.8323 76.5711 18.0372 77.5152 18.0372C78.2605 18.0372 78.7574 18.5341 79.1052 18.9316V20.6211ZM66.5338 23.6521L64.1984 20.4223L66.7823 17.2422L71.2543 23.6521H66.5338Z" fill="#141A2C"/>
</g>
<defs>
<clipPath id="clip0">
<rect width="96.6956" height="24" fill="white"/>
</clipPath>
</defs>
</svg>
