<svg width="184" height="36" viewBox="0 0 184 36" fill="none" xmlns="http://www.w3.org/2000/svg">
<path d="M82.8951 17.6277C82.8951 24.6022 78.6398 27.8995 73.3137 27.8995H70.0587V23.7145H73.0601C76.2727 23.7145 78.4141 21.9817 78.4141 17.6277C78.4141 13.316 76.3889 11.1598 72.9648 11.1598C69.6676 11.1598 67.311 13.1891 67.311 17.5431V35.0437H62.8724V7.52437H67.311V9.89191H67.9451C69.4246 7.90516 71.6121 7.01711 73.8948 7.01711C78.7984 7.01711 82.8951 10.568 82.8951 17.6277ZM53.7244 15.8097L50.7652 15.5138C48.4403 15.3025 47.2144 14.6684 47.2144 13.3156C47.2144 11.7093 48.7786 10.7794 51.0189 10.7794C53.3439 10.7794 54.8233 11.8784 54.9502 13.4424H59.2197C59.0507 9.46895 55.9649 7.01711 51.0613 7.01711C46.1155 7.01711 42.7759 9.63801 42.7759 13.4848C42.7759 16.6975 44.8049 18.7687 49.4127 19.2338L52.4138 19.5296C54.2317 19.6986 55.4576 20.0791 55.4576 21.8123C55.4576 23.3765 54.3161 24.5176 51.3149 24.5176C48.5511 24.5176 47.1893 23.2636 46.7115 21.5825H42.0925C42.5527 25.4252 45.7808 28.4067 51.3149 28.4067C56.5143 28.4067 59.896 25.659 59.896 21.6011C59.896 18.0078 57.5289 16.1902 53.7244 15.8097ZM100.086 21.5825C99.3892 23.1817 97.7255 24.391 95.3645 24.391C92.1097 24.391 89.7002 22.2773 89.7002 17.712C89.7002 13.3579 91.9405 10.9484 95.4067 10.9484C98.4927 10.9484 100.268 12.8084 100.437 15.5983H92.4477V18.8113H104.791V16.6975C104.791 10.8216 100.902 7.01711 95.3645 7.01711C90.2074 7.01711 85.2615 10.5257 85.2615 17.712C85.2615 24.8981 90.2074 28.4067 95.3645 28.4067C100.082 28.4067 103.445 25.5011 104.49 21.5825H100.086ZM30.1156 7.01711C25.2544 7.01711 21.6189 9.55377 21.1963 13.4424H25.9729C26.3111 12.0055 27.6215 10.9488 30.1156 10.9488C33.3284 10.9488 34.3851 12.6399 34.3851 14.7109V21.6855C32.5675 23.7571 30.4538 24.7291 28.3401 24.7291C26.1421 24.7291 24.6203 23.6723 24.6203 21.7704C24.6203 19.9523 25.8038 18.8113 28.0865 18.8113H31.6374V15.5983H27.9597C22.8871 15.5983 20.0549 18.135 20.0549 22.0237C20.0549 25.659 22.8025 28.4067 27.3256 28.4067C29.8619 28.4067 32.1024 27.3925 33.751 26.1662H34.3851V27.8995H38.8236V14.2879C38.8236 9.25756 35.3996 7.01711 30.1156 7.01711ZM0 27.8995H4.43859V0H0V27.8995ZM18.6419 7.52437H13.2311L6.76353 16.0214V18.6845L13.4002 27.8995H18.8955L11.1176 17.3315L18.6419 7.52437ZM179.096 7.52437L175.461 15.5983C174.573 17.5431 173.728 19.445 173.474 20.7135H172.84C172.586 19.445 171.699 17.5852 170.811 15.6409L167.176 7.52437H162.272L170.811 25.8282L166.584 35.0437H171.318L184 7.52437H179.096ZM161.29 7.52437H155.88L149.412 16.0214V18.6845L156.049 27.8995H161.544L153.766 17.3315L161.29 7.52437ZM133.5 15.8097L130.541 15.5138C128.216 15.3025 126.99 14.6684 126.99 13.3156C126.99 11.7093 128.554 10.7794 130.795 10.7794C133.12 10.7794 134.599 11.8784 134.726 13.4424H138.996C138.827 9.46895 135.741 7.01711 130.837 7.01711C125.891 7.01711 122.552 9.63801 122.552 13.4848C122.552 16.6975 124.581 18.7687 129.189 19.2338L132.19 19.5296C134.008 19.6986 135.234 20.0791 135.234 21.8123C135.234 23.3765 134.092 24.5176 131.091 24.5176C128.327 24.5176 126.965 23.2636 126.487 21.5825H121.868C122.329 25.4252 125.557 28.4067 131.091 28.4067C136.29 28.4067 139.672 25.659 139.672 21.6011C139.672 18.0078 137.305 16.1902 133.5 15.8097ZM142.648 27.8995H147.087V0H142.648V27.8995ZM113.379 9.89191H112.745V7.52437H108.307V27.8995H112.745V17.2469C112.745 13.6116 114.425 11.4979 117.733 11.4979H120.543V7.01711H118.917C115.847 7.01711 114.543 8.17487 113.379 9.89191Z" fill="white"/>
</svg>
