<svg width="16" height="16" viewBox="0 0 16 16" fill="none" xmlns="http://www.w3.org/2000/svg">
<path fill-rule="evenodd" clip-rule="evenodd" d="M11.001 5C11.001 6.65685 9.65783 8 8.00098 8C6.34412 8 5.00098 6.65685 5.00098 5C5.00098 3.34315 6.34412 2 8.00098 2C9.65783 2 11.001 3.34315 11.001 5ZM13.001 5C13.001 7.76142 10.7624 10 8.00098 10C5.23956 10 3.00098 7.76142 3.00098 5C3.00098 2.23858 5.23956 0 8.00098 0C10.7624 0 13.001 2.23858 13.001 5ZM8.00098 10C11.0894 10 13.8484 11.3233 15.728 13.3134C16.1072 13.7149 16.0891 14.3478 15.6876 14.727C15.2861 15.1062 14.6532 15.0881 14.274 14.6866C12.7535 13.0767 10.5125 12 8.00098 12C5.48945 12 3.24844 13.0767 1.72799 14.6866C1.34878 15.0881 0.715874 15.1062 0.314356 14.727C-0.0871627 14.3478 -0.105246 13.7149 0.273966 13.3134C2.15352 11.3233 4.91251 10 8.00098 10ZM5.00098 15C5.00098 14.4477 5.44869 14 6.00098 14H10.001C10.5533 14 11.001 14.4477 11.001 15C11.001 15.5523 10.5533 16 10.001 16H6.00098C5.44869 16 5.00098 15.5523 5.00098 15Z" fill="#FF6A00"/>
</svg>
